HIERARCHY
ROOT Hips
{
	OFFSET	0.00	0.00	0.00
	CHANNELS 6 Xposition Yposition Zposition Zrotation Xrotation Yrotation
	JOINT LeftUpLeg
	{
		OFFSET	 0.126116	-0.014019	-0.065224
		CHANNELS 3 Zrotation Xrotation Yrotation
		JOINT LeftLeg
		{
			OFFSET	 0.000000	 0.000000	 0.569914
			CHANNELS 3 Zrotation Xrotation Yrotation
			JOINT LeftFoot
			{
				OFFSET	 0.000000	 0.000000	 0.544423
				CHANNELS 3 Zrotation Xrotation Yrotation
				JOINT LeftToeBase
				{
					OFFSET	 0.000000	 0.000000	 0.207117
					CHANNELS 3 Zrotation Xrotation Yrotation
					End Site
					{
						OFFSET	 0.000000	 0.000000	 0.207117
					}
				}
			}
		}
	}
	JOINT RightUpLeg
	{
		OFFSET	-0.124023	-0.008373	-0.065224
		CHANNELS 3 Zrotation Xrotation Yrotation
		JOINT RightLeg
		{
			OFFSET	 0.000000	 0.000000	 0.570047
			CHANNELS 3 Zrotation Xrotation Yrotation
			JOINT RightFoot
			{
				OFFSET	 0.000000	 0.000000	 0.544354
				CHANNELS 3 Zrotation Xrotation Yrotation
				JOINT RightToeBase
				{
					OFFSET	 0.000000	 0.000000	 0.207540
					CHANNELS 3 Zrotation Xrotation Yrotation
					End Site
					{
						OFFSET	 0.000000	 0.000000	 0.207540
					}
				}
			}
		}
	}
	JOINT Spine
	{
		OFFSET	 0.000184	-0.007763	 0.117403
		CHANNELS 3 Zrotation Xrotation Yrotation
		JOINT Spine1
		{
			OFFSET	 0.000000	 0.000000	 0.137269
			CHANNELS 3 Zrotation Xrotation Yrotation
			JOINT Spine2
			{
				OFFSET	 0.000000	 0.000000	 0.156879
				CHANNELS 3 Zrotation Xrotation Yrotation
				JOINT LeftShoulder
				{
					OFFSET	 0.080501	-0.002496	 0.160144
					CHANNELS 3 Zrotation Xrotation Yrotation
					JOINT LeftArm
					{
						OFFSET	 0.000000	 0.000000	 0.164363
						CHANNELS 3 Zrotation Xrotation Yrotation
						JOINT LeftForeArm
						{
							OFFSET	 0.000000	 0.000000	 0.364576
							CHANNELS 3 Zrotation Xrotation Yrotation
							JOINT LeftHand
							{
								OFFSET	 0.000000	 0.000000	 0.360812
								CHANNELS 3 Zrotation Xrotation Yrotation
								JOINT LeftHandIndex1
								{
									OFFSET	 0.000000	 0.000000	 0.086006
									CHANNELS 3 Zrotation Xrotation Yrotation
									JOINT LeftHandIndex2
									{
										OFFSET	 0.000000	 0.000000	 0.047236
										CHANNELS 3 Zrotation Xrotation Yrotation
										JOINT LeftHandIndex3
										{
											OFFSET	-0.004284	-0.000551	 0.038166
											CHANNELS 3 Zrotation Xrotation Yrotation
											End Site
											{
												OFFSET	-0.004284	-0.000551	 0.038166
											}
										}
									}
								}
							}
						}
					}
				}
				JOINT Neck
				{
					OFFSET	 0.000000	 0.000000	 0.176489
					CHANNELS 3 Zrotation Xrotation Yrotation
					JOINT Head
					{
						OFFSET	 0.000000	-0.001747	 0.077940
						CHANNELS 3 Zrotation Xrotation Yrotation
						End Site
						{
							OFFSET	 0.000000	-0.001747	 0.077940
						}
					}
				}
				JOINT RightShoulder
				{
					OFFSET	-0.080363	 0.000306	 0.159706
					CHANNELS 3 Zrotation Xrotation Yrotation
					JOINT RightArm
					{
						OFFSET	 0.000000	 0.000000	 0.164196
						CHANNELS 3 Zrotation Xrotation Yrotation
						JOINT RightForeArm
						{
							OFFSET	 0.000000	 0.000000	 0.365611
							CHANNELS 3 Zrotation Xrotation Yrotation
							JOINT RightHand
							{
								OFFSET	 0.000000	 0.000000	 0.360648
								CHANNELS 3 Zrotation Xrotation Yrotation
								JOINT RightHandIndex1
								{
									OFFSET	 0.000000	 0.000000	 0.069977
									CHANNELS 3 Zrotation Xrotation Yrotation
									JOINT RightHandIndex2
									{
										OFFSET	 0.000000	 0.000000	 0.052305
										CHANNELS 3 Zrotation Xrotation Yrotation
										JOINT RightHandIndex3
										{
											OFFSET	 0.009002	-0.000782	 0.042196
											CHANNELS 3 Zrotation Xrotation Yrotation
											End Site
											{
												OFFSET	 0.009002	-0.000782	 0.042196
											}
										}
									}
								}
							}
						}
					}
				}
			}
		}
	}
}
MOTION
Frames:    7
Frame Time: 0.03333334
-0.041793	 0.239267	 1.025033	 0.839422	 34.131310	-6.399155	 12.883880	-84.817340	-168.769300	 7.528021	-74.175710	 7.647118	-3.938120	 79.967600	 4.410195	-2.385832	 28.452790	-0.000001	 80.394250	-79.713200	-105.095000	-19.167530	-76.357320	-13.640630	 29.940370	 77.837840	-19.060510	 2.384659	 28.388700	-0.000001	-13.925330	 15.099480	 1.767653	-2.997838	 22.189100	 4.226351	 1.213907	-1.152433	 1.489153	-99.094310	 68.193270	 157.013000	 6.319132	-6.413030	-56.251290	-21.198490	 2.822602	-11.541450	-29.462890	-26.678450	-20.465110	-2.027600	 6.559038	 9.033609	-5.188889	 0.308190	 3.541030	-5.234859	 0.342567	 0.430617	 0.178456	 16.631640	-5.554158	 3.083586	-25.832560	 0.456088	 97.392220	 64.615300	-159.299400	-8.894699	 6.922388	 64.953210	 5.077480	 6.403181	 27.227420	 12.977920	-25.906030	 16.016640	 1.803333	 3.979147	-15.098590	 4.898592	 3.004813	-9.310344	 5.224449	 0.395017	 2.014677
-0.040210	 0.238046	 1.044800	 0.690697	 32.552510	-5.736029	 4.258507	-81.558810	-177.154300	 6.128418	-71.564450	 6.211768	-4.201775	 78.782530	 4.554677	-2.385832	 28.452790	-0.000001	 60.920260	-79.060770	-124.238000	-17.388410	-73.667690	-11.762160	 26.991810	 76.904340	-15.927300	 2.384659	 28.388700	-0.000001	-13.366300	 15.098920	 1.575707	-2.620334	 23.196860	 3.678045	 1.086907	-2.869728	 1.170731	-98.397110	 68.875360	 158.157400	 6.306159	-2.761717	-57.979830	-20.692470	 2.828957	-11.564530	-31.387920	-32.413340	-22.193390	-2.027600	 6.559038	 9.033609	-5.188889	 0.308190	 3.541030	-5.234859	 0.342567	 0.430617	-0.583019	 10.321170	-3.903449	 2.442061	-19.642230	-0.651962	 97.022060	 64.071160	-160.730400	-10.066280	 6.606622	 64.509720	 5.527122	 7.239667	 29.781780	 13.411950	-30.942050	 18.236150	 1.803333	 3.979147	-15.098590	 4.898592	 3.004813	-9.310344	 5.224449	 0.395017	 2.014677
-0.037441	 0.237862	 1.068253	 0.464092	 30.525330	-4.901596	 0.287890	-77.450240	 179.076300	 5.128036	-68.361660	 5.156043	-4.347964	 77.411960	 4.476179	-2.385833	 28.452760	 0.000004	 42.099750	-76.775300	-142.696000	-16.094240	-70.286190	-10.320490	 24.476660	 75.806260	-13.165890	 2.384659	 28.388700	-0.000001	-12.939820	 15.198020	 1.391227	-2.350700	 24.031890	 3.194766	 0.936716	-4.977445	 0.791786	-96.931680	 71.057850	 159.447500	 7.388590	 2.643292	-60.076160	-19.962140	 2.816144	-11.552030	-34.539280	-38.857490	-25.307910	-2.027600	 6.559038	 9.033609	-5.188889	 0.308190	 3.541030	-5.234859	 0.342567	 0.430617	-1.075387	 1.933856	-2.386330	 1.895576	-11.566770	-1.832422	 96.393240	 64.759740	-161.758600	-11.803230	 8.554141	 63.537930	 4.801701	 7.815980	 32.899280	 13.970520	-36.600680	 19.925090	 1.803333	 3.979147	-15.098590	 4.898592	 3.004813	-9.310344	 5.224449	 0.395017	 2.014677
-0.034179	 0.237743	 1.090454	 0.343936	 28.520220	-4.081695	-1.599081	-73.426310	 177.354700	 4.845038	-65.233280	 4.779986	-4.269814	 76.162390	 4.052355	-2.385833	 28.452750	 0.000004	 29.839320	-73.621190	-154.597800	-15.066450	-66.978870	-9.144046	 22.609280	 74.818540	-11.033360	 2.384659	 28.388700	-0.000001	-12.540930	 15.376420	 1.175521	-2.074525	 24.585540	 2.661841	 0.845799	-6.860790	 0.593293	-94.817460	 74.409430	 160.383000	 8.977985	 8.441392	-62.801190	-19.189200	 2.786543	-11.505270	-38.106510	-44.655280	-28.449100	-2.027600	 6.559038	 9.033609	-5.188889	 0.308190	 3.541030	-5.234859	 0.342567	 0.430617	-1.384829	-5.855352	-2.216343	 1.792748	-4.056230	-1.960446	 95.296340	 66.870880	-162.853500	-13.651820	 11.950330	 63.695270	 3.835322	 8.130681	 35.693910	 15.186420	-42.585390	 21.420480	 1.803333	 3.979147	-15.098590	 4.898592	 3.004813	-9.310344	 5.224449	 0.395017	 2.014677
-0.028872	 0.234959	 1.118533	 0.654886	 26.220770	-3.151000	-3.073009	-68.437600	 176.293900	 4.733788	-61.136020	 4.535667	-3.292966	 74.502750	 2.687563	-2.385833	 28.452750	 0.000004	 20.476010	-68.991200	-163.400100	-12.337990	-62.868530	-6.407335	 20.998280	 73.662690	-9.807157	 2.384659	 28.388700	-0.000001	-12.042390	 15.166160	 0.610928	-1.911237	 24.970590	 1.937876	 0.795078	-9.116732	 0.394373	-93.236470	 76.562000	 161.788500	 11.657650	 13.191440	-65.176120	-18.139360	 2.730048	-11.407180	-41.934210	-50.732300	-32.668380	-2.027600	 6.559038	 9.033609	-5.188889	 0.308190	 3.541030	-5.234859	 0.342567	 0.430617	-1.667045	-13.432360	-2.105288	 1.736996	 3.180257	-2.071543	 94.155260	 69.027020	-164.109400	-16.346410	 15.688930	 63.097290	 2.583294	 8.598305	 40.022950	 16.400600	-49.225580	 22.620970	 1.803333	 3.979147	-15.098590	 4.898592	 3.004813	-9.310344	 5.224449	 0.395017	 2.014677
-0.023225	 0.228279	 1.150214	 1.420222	 24.280360	-2.452638	-3.780793	-63.145290	 176.212900	 4.499810	-56.085920	 4.083076	-2.047344	 72.440620	 1.170281	-2.385833	 28.452750	 0.000004	 14.322720	-63.721530	-168.703700	-9.746329	-57.899000	-3.899127	 19.144590	 71.960870	-8.476056	 2.384659	 28.388700	-0.000001	-11.325500	 13.835970	-0.096645	-1.810846	 24.883550	 1.223281	 0.765995	-11.337970	 0.050734	-94.160800	 74.571130	 164.032200	 14.470070	 14.714620	-65.070990	-16.920170	 2.648143	-11.256110	-44.046550	-55.599350	-36.193570	-2.027600	 6.559038	 9.033609	-5.188889	 0.308190	 3.541030	-5.234859	 0.342567	 0.430617	-1.728819	-14.940110	-0.991402	 1.761931	 4.802495	-2.592528	 93.873120	 68.616550	-165.619300	-18.880150	 17.941960	 59.571270	 1.021964	 9.144142	 46.081930	 16.544110	-54.517850	 23.148240	 1.803333	 3.979147	-15.098590	 4.898592	 3.004813	-9.310344	 5.224449	 0.395017	 2.014677
-0.019206	 0.217548	 1.187748	 2.082156	 22.265830	-1.773399	-4.638456	-56.693700	 175.944900	 4.069665	-49.522580	 3.415425	-2.102913	 69.663600	 0.931522	-2.385833	 28.452750	 0.000004	 9.342695	-57.263040	-172.815300	-7.383541	-51.228680	-1.744633	 15.578410	 69.554290	-5.699067	 2.384659	 28.388700	-0.000001	-10.265660	 11.633020	-0.304833	-1.196984	 24.455520	 0.349353	 0.640910	-13.640340	-0.214971	-94.728260	 72.395480	 166.208000	 17.732060	 15.736030	-65.167670	-15.359700	 2.519515	-11.007060	-42.739720	-60.038520	-36.023320	-2.027600	 6.559038	 9.033609	-5.188889	 0.308190	 3.541030	-5.234859	 0.342567	 0.430617	-1.841898	-15.167140	-0.766442	 1.854998	 5.548639	-2.445805	 93.973780	 65.616820	-167.874400	-20.933970	 18.093920	 54.000400	-0.892471	 9.569958	 53.894570	 14.744570	-58.462810	 22.186610	 1.803333	 3.979147	-15.098590	 4.898592	 3.004813	-9.310344	 5.224449	 0.395017	 2.014677
